<svg xmlns="http://www.w3.org/2000/svg" viewBox="0 0 12 12">
  <g fill="currentColor" fill-rule="nonzero">
    <path d="M1.379 7.017v2.775h-.55A.816.816 0 0 1 0 8.989V7.427c0-.443.371-.803.829-.803h.566c-.01.13-.016.261-.016.393zm9.792-.393c.458 0 .829.36.829.803V8.99a.816.816 0 0 1-.829.803h-.55V7.017c0-.132-.006-.263-.016-.393h.566zM10.047 9.873v-2.82c0-.132-.006-.263-.018-.393C9.857 4.651 8.377 3.043 6.5 2.8h-.997c-1.88.244-3.36 1.853-3.532 3.863-.01.129-.017.26-.017.392v4.754h8.094V9.873zm-5.998-.66c-.608 0-1.101-.522-1.101-1.167 0-.644.493-1.166 1.1-1.166.609 0 1.102.522 1.102 1.166 0 .645-.493 1.167-1.101 1.167zm2.96-1.167c0-.644.493-1.166 1.1-1.166.609 0 1.102.522 1.102 1.166 0 .645-.493 1.167-1.101 1.167s-1.101-.522-1.101-1.167z"/>
  </g>
</svg>
